<?xml version="1.0" encoding="iso-8859-1"?>
<!-- Uploaded to: SVG Repo, www.svgrepo.com, Generator: SVG Repo Mixer Tools -->
<svg height="800px" width="800px" version="1.1" id="Layer_1" xmlns="http://www.w3.org/2000/svg" xmlns:xlink="http://www.w3.org/1999/xlink" 
	 viewBox="0 0 512 512" xml:space="preserve">
<polygon style="fill:#0071CE;" points="152.36,112.001 74.052,82.395 74.052,141.605 "/>
<polygon style="opacity:0.2;enable-background:new    ;" points="74.052,82.395 74.052,141.605 96.699,133.043 96.699,90.957 "/>
<polygon style="fill:#FFB819;" points="309.533,112.001 231.224,82.395 231.224,141.605 "/>
<polygon style="opacity:0.2;enable-background:new    ;" points="231.224,82.395 231.224,141.605 253.872,133.043 253.872,90.957 
	"/>
<polygon style="fill:#7CDFA8;" points="466.705,112.001 388.396,82.395 388.396,141.605 "/>
<polygon style="opacity:0.2;enable-background:new    ;" points="388.396,82.395 388.396,141.605 411.044,133.043 411.044,90.957 
	"/>
<polygon style="fill:#A4A9AD;" points="450.107,216.053 61.888,216.053 87.425,419.356 424.571,419.356 "/>
<polygon style="fill:#0071CE;" points="75.045,320.803 81.388,371.295 430.608,371.295 436.949,320.803 "/>
<polygon style="opacity:0.2;enable-background:new    ;" points="61.888,216.053 65.719,246.548 446.277,246.548 450.107,216.053 
	"/>
<path style="fill:#00B3E3;" d="M461.907,223.552H50.093c-14.614,0-26.462-11.847-26.462-26.462s11.848-26.462,26.462-26.462h411.813
	c14.614,0,26.462,11.848,26.462,26.462C488.369,211.705,476.52,223.552,461.907,223.552z"/>
<path style="fill:#218649;" d="M504.061,427.006c0,2.352-1.922,4.276-4.275,4.276H12.214c-2.352,0-4.275-1.924-4.275-4.276v-15.302
	c0-2.352,1.923-4.276,4.275-4.276h487.573c2.353,0,4.275,1.924,4.275,4.276V427.006z"/>
<path style="fill:#00AD68;" d="M120.913,407.429c0-25.332-20.535-45.868-45.868-45.868s-45.868,20.535-45.868,45.868H120.913z"/>
<path style="fill:#1E252B;" d="M499.786,399.49h-29.941V230.555c15.152-3.595,26.462-17.23,26.462-33.466
	c0-18.968-15.431-34.4-34.4-34.4h-65.571v-15.598l73.178-27.665c3.088-1.167,5.132-4.124,5.132-7.426
	c0-3.301-2.044-6.259-5.132-7.426L395.07,76.43c-1.412-2.193-3.87-3.65-6.674-3.65c-4.384,0-7.939,3.554-7.939,7.939v81.969H239.162
	V147.09l73.178-27.665c3.088-1.167,5.131-4.124,5.131-7.426c0-3.301-2.044-6.259-5.131-7.426l-74.443-28.144
	c-1.412-2.193-3.87-3.65-6.674-3.65c-4.385,0-7.939,3.554-7.939,7.939v81.969H81.99v-15.598l73.178-27.665
	c3.088-1.167,5.132-4.124,5.132-7.426c0-3.301-2.044-6.259-5.132-7.426L80.726,76.428c-1.412-2.193-3.87-3.65-6.674-3.65
	c-4.385,0-7.939,3.554-7.939,7.939v81.969h-16.02c-18.969,0-34.4,15.433-34.4,34.4c0,16.236,11.31,29.871,26.462,33.466v134.337
	c-10.729,8.313-18.244,20.579-20.326,34.6h-9.615C5.48,399.49,0,404.97,0,411.705v15.302c0,6.735,5.48,12.215,12.214,12.215h487.573
	c6.734,0,12.214-5.48,12.214-12.215v-15.302C512,404.97,506.52,399.49,499.786,399.49z M396.334,93.883L444.254,112l-47.92,18.117
	V93.883z M239.162,93.883L287.083,112l-47.92,18.117V93.883z M81.99,93.883L129.911,112l-47.92,18.117V93.883z M31.57,197.091
	c0-10.213,8.31-18.523,18.523-18.523h411.813c10.213,0,18.523,8.31,18.523,18.523s-8.31,18.523-18.523,18.523H50.093
	C39.88,215.614,31.57,207.304,31.57,197.091z M381.601,231.491h58.565l-12.263,97.638L381.601,231.491z M424.224,358.423
	l-5.159,41.067h-52.173V237.527L424.224,358.423z M436.875,385.099l6.824,14.391h-8.632L436.875,385.099z M440.554,355.805
	l13.414-106.794V384.09L440.554,355.805z M351.014,237.527V399.49h-76.807L351.014,237.527z M263.938,384.089V231.491h72.367
	L263.938,384.089z M175.694,231.491h72.367v152.597L175.694,231.491z M237.794,399.49h-76.808V237.526L237.794,399.49z
	 M145.108,237.527V399.49h-16.847c-3.153-21.226-18.747-38.437-39.104-43.978L145.108,237.527z M84.093,329.136l-12.265-97.645
	h58.571L84.093,329.136z M71.187,353.776c-4.565,0.326-8.973,1.22-13.155,2.619V249.049L71.187,353.776z M75.045,369.499
	c18.192,0,33.427,12.876,37.087,29.991H37.958C41.618,382.375,56.854,369.499,75.045,369.499z M496.123,423.345H15.877v-7.978
	h480.246V423.345z"/>
</svg>